<svg width="160" height="160" viewBox="0 0 160 160" xmlns="http://www.w3.org/2000/svg">
  <!-- QR Code pattern for account number: 4286521613332334 -->
  <rect width="160" height="160" fill="white" stroke="#e0e0e0" stroke-width="2"/>
  
  <!-- Corner squares -->
  <rect x="8" y="8" width="32" height="32" fill="black"/>
  <rect x="12" y="12" width="24" height="24" fill="white"/>
  <rect x="16" y="16" width="16" height="16" fill="black"/>
  
  <rect x="120" y="8" width="32" height="32" fill="black"/>
  <rect x="124" y="12" width="24" height="24" fill="white"/>
  <rect x="128" y="16" width="16" height="16" fill="black"/>
  
  <rect x="8" y="120" width="32" height="32" fill="black"/>
  <rect x="12" y="124" width="24" height="24" fill="white"/>
  <rect x="16" y="128" width="16" height="16" fill="black"/>
  
  <!-- Timing patterns -->
  <rect x="48" y="24" width="4" height="4" fill="black"/>
  <rect x="56" y="24" width="4" height="4" fill="black"/>
  <rect x="64" y="24" width="4" height="4" fill="black"/>
  <rect x="72" y="24" width="4" height="4" fill="black"/>
  <rect x="80" y="24" width="4" height="4" fill="black"/>
  <rect x="88" y="24" width="4" height="4" fill="black"/>
  <rect x="96" y="24" width="4" height="4" fill="black"/>
  <rect x="104" y="24" width="4" height="4" fill="black"/>
  <rect x="112" y="24" width="4" height="4" fill="black"/>
  
  <rect x="24" y="48" width="4" height="4" fill="black"/>
  <rect x="24" y="56" width="4" height="4" fill="black"/>
  <rect x="24" y="64" width="4" height="4" fill="black"/>
  <rect x="24" y="72" width="4" height="4" fill="black"/>
  <rect x="24" y="80" width="4" height="4" fill="black"/>
  <rect x="24" y="88" width="4" height="4" fill="black"/>
  <rect x="24" y="96" width="4" height="4" fill="black"/>
  <rect x="24" y="104" width="4" height="4" fill="black"/>
  <rect x="24" y="112" width="4" height="4" fill="black"/>
  
  <!-- Data modules pattern -->
  <rect x="48" y="48" width="4" height="4" fill="black"/>
  <rect x="52" y="48" width="4" height="4" fill="black"/>
  <rect x="60" y="48" width="4" height="4" fill="black"/>
  <rect x="68" y="48" width="4" height="4" fill="black"/>
  <rect x="76" y="48" width="4" height="4" fill="black"/>
  <rect x="84" y="48" width="4" height="4" fill="black"/>
  <rect x="92" y="48" width="4" height="4" fill="black"/>
  <rect x="100" y="48" width="4" height="4" fill="black"/>
  <rect x="108" y="48" width="4" height="4" fill="black"/>
  
  <rect x="48" y="52" width="4" height="4" fill="black"/>
  <rect x="56" y="52" width="4" height="4" fill="black"/>
  <rect x="64" y="52" width="4" height="4" fill="black"/>
  <rect x="72" y="52" width="4" height="4" fill="black"/>
  <rect x="80" y="52" width="4" height="4" fill="black"/>
  <rect x="88" y="52" width="4" height="4" fill="black"/>
  <rect x="96" y="52" width="4" height="4" fill="black"/>
  <rect x="104" y="52" width="4" height="4" fill="black"/>
  
  <rect x="52" y="56" width="4" height="4" fill="black"/>
  <rect x="60" y="56" width="4" height="4" fill="black"/>
  <rect x="68" y="56" width="4" height="4" fill="black"/>
  <rect x="76" y="56" width="4" height="4" fill="black"/>
  <rect x="84" y="56" width="4" height="4" fill="black"/>
  <rect x="92" y="56" width="4" height="4" fill="black"/>
  <rect x="100" y="56" width="4" height="4" fill="black"/>
  <rect x="108" y="56" width="4" height="4" fill="black"/>
  
  <rect x="48" y="60" width="4" height="4" fill="black"/>
  <rect x="56" y="60" width="4" height="4" fill="black"/>
  <rect x="64" y="60" width="4" height="4" fill="black"/>
  <rect x="72" y="60" width="4" height="4" fill="black"/>
  <rect x="80" y="60" width="4" height="4" fill="black"/>
  <rect x="88" y="60" width="4" height="4" fill="black"/>
  <rect x="96" y="60" width="4" height="4" fill="black"/>
  <rect x="104" y="60" width="4" height="4" fill="black"/>
  
  <rect x="52" y="64" width="4" height="4" fill="black"/>
  <rect x="60" y="64" width="4" height="4" fill="black"/>
  <rect x="68" y="64" width="4" height="4" fill="black"/>
  <rect x="76" y="64" width="4" height="4" fill="black"/>
  <rect x="84" y="64" width="4" height="4" fill="black"/>
  <rect x="92" y="64" width="4" height="4" fill="black"/>
  <rect x="100" y="64" width="4" height="4" fill="black"/>
  <rect x="108" y="64" width="4" height="4" fill="black"/>
  
  <!-- More data pattern -->
  <rect x="48" y="68" width="4" height="4" fill="black"/>
  <rect x="56" y="68" width="4" height="4" fill="black"/>
  <rect x="64" y="68" width="4" height="4" fill="black"/>
  <rect x="72" y="68" width="4" height="4" fill="black"/>
  <rect x="80" y="68" width="4" height="4" fill="black"/>
  <rect x="88" y="68" width="4" height="4" fill="black"/>
  <rect x="96" y="68" width="4" height="4" fill="black"/>
  <rect x="104" y="68" width="4" height="4" fill="black"/>
  
  <rect x="52" y="72" width="4" height="4" fill="black"/>
  <rect x="60" y="72" width="4" height="4" fill="black"/>
  <rect x="68" y="72" width="4" height="4" fill="black"/>
  <rect x="76" y="72" width="4" height="4" fill="black"/>
  <rect x="84" y="72" width="4" height="4" fill="black"/>
  <rect x="92" y="72" width="4" height="4" fill="black"/>
  <rect x="100" y="72" width="4" height="4" fill="black"/>
  <rect x="108" y="72" width="4" height="4" fill="black"/>
  
  <rect x="48" y="76" width="4" height="4" fill="black"/>
  <rect x="56" y="76" width="4" height="4" fill="black"/>
  <rect x="64" y="76" width="4" height="4" fill="black"/>
  <rect x="72" y="76" width="4" height="4" fill="black"/>
  <rect x="80" y="76" width="4" height="4" fill="black"/>
  <rect x="88" y="76" width="4" height="4" fill="black"/>
  <rect x="96" y="76" width="4" height="4" fill="black"/>
  <rect x="104" y="76" width="4" height="4" fill="black"/>
  
  <rect x="52" y="80" width="4" height="4" fill="black"/>
  <rect x="60" y="80" width="4" height="4" fill="black"/>
  <rect x="68" y="80" width="4" height="4" fill="black"/>
  <rect x="76" y="80" width="4" height="4" fill="black"/>
  <rect x="84" y="80" width="4" height="4" fill="black"/>
  <rect x="92" y="80" width="4" height="4" fill="black"/>
  <rect x="100" y="80" width="4" height="4" fill="black"/>
  <rect x="108" y="80" width="4" height="4" fill="black"/>
  
  <rect x="48" y="84" width="4" height="4" fill="black"/>
  <rect x="56" y="84" width="4" height="4" fill="black"/>
  <rect x="64" y="84" width="4" height="4" fill="black"/>
  <rect x="72" y="84" width="4" height="4" fill="black"/>
  <rect x="80" y="84" width="4" height="4" fill="black"/>
  <rect x="88" y="84" width="4" height="4" fill="black"/>
  <rect x="96" y="84" width="4" height="4" fill="black"/>
  <rect x="104" y="84" width="4" height="4" fill="black"/>
  
  <rect x="52" y="88" width="4" height="4" fill="black"/>
  <rect x="60" y="88" width="4" height="4" fill="black"/>
  <rect x="68" y="88" width="4" height="4" fill="black"/>
  <rect x="76" y="88" width="4" height="4" fill="black"/>
  <rect x="84" y="88" width="4" height="4" fill="black"/>
  <rect x="92" y="88" width="4" height="4" fill="black"/>
  <rect x="100" y="88" width="4" height="4" fill="black"/>
  <rect x="108" y="88" width="4" height="4" fill="black"/>
  
  <rect x="48" y="92" width="4" height="4" fill="black"/>
  <rect x="56" y="92" width="4" height="4" fill="black"/>
  <rect x="64" y="92" width="4" height="4" fill="black"/>
  <rect x="72" y="92" width="4" height="4" fill="black"/>
  <rect x="80" y="92" width="4" height="4" fill="black"/>
  <rect x="88" y="92" width="4" height="4" fill="black"/>
  <rect x="96" y="92" width="4" height="4" fill="black"/>
  <rect x="104" y="92" width="4" height="4" fill="black"/>
  
  <rect x="52" y="96" width="4" height="4" fill="black"/>
  <rect x="60" y="96" width="4" height="4" fill="black"/>
  <rect x="68" y="96" width="4" height="4" fill="black"/>
  <rect x="76" y="96" width="4" height="4" fill="black"/>
  <rect x="84" y="96" width="4" height="4" fill="black"/>
  <rect x="92" y="96" width="4" height="4" fill="black"/>
  <rect x="100" y="96" width="4" height="4" fill="black"/>
  <rect x="108" y="96" width="4" height="4" fill="black"/>
  
  <rect x="48" y="100" width="4" height="4" fill="black"/>
  <rect x="56" y="100" width="4" height="4" fill="black"/>
  <rect x="64" y="100" width="4" height="4" fill="black"/>
  <rect x="72" y="100" width="4" height="4" fill="black"/>
  <rect x="80" y="100" width="4" height="4" fill="black"/>
  <rect x="88" y="100" width="4" height="4" fill="black"/>
  <rect x="96" y="100" width="4" height="4" fill="black"/>
  <rect x="104" y="100" width="4" height="4" fill="black"/>
  
  <rect x="52" y="104" width="4" height="4" fill="black"/>
  <rect x="60" y="104" width="4" height="4" fill="black"/>
  <rect x="68" y="104" width="4" height="4" fill="black"/>
  <rect x="76" y="104" width="4" height="4" fill="black"/>
  <rect x="84" y="104" width="4" height="4" fill="black"/>
  <rect x="92" y="104" width="4" height="4" fill="black"/>
  <rect x="100" y="104" width="4" height="4" fill="black"/>
  <rect x="108" y="104" width="4" height="4" fill="black"/>
  
  <rect x="48" y="108" width="4" height="4" fill="black"/>
  <rect x="56" y="108" width="4" height="4" fill="black"/>
  <rect x="64" y="108" width="4" height="4" fill="black"/>
  <rect x="72" y="108" width="4" height="4" fill="black"/>
  <rect x="80" y="108" width="4" height="4" fill="black"/>
  <rect x="88" y="108" width="4" height="4" fill="black"/>
  <rect x="96" y="108" width="4" height="4" fill="black"/>
  <rect x="104" y="108" width="4" height="4" fill="black"/>
  
  <!-- Alignment pattern -->
  <rect x="118" y="118" width="20" height="20" fill="black"/>
  <rect x="120" y="120" width="16" height="16" fill="white"/>
  <rect x="124" y="124" width="8" height="8" fill="black"/>
  <rect x="126" y="126" width="4" height="4" fill="white"/>
  <rect x="128" y="128" width="4" height="4" fill="black"/>
</svg>