<svg xmlns="http://www.w3.org/2000/svg" width="160" height="160" viewBox="0 0 160 160"><rect width="160" height="160" fill="#fff" stroke="#e0e0e0" stroke-width="2"/><rect width="32" height="32" x="8" y="8" fill="#000"/><rect width="24" height="24" x="12" y="12" fill="#fff"/><rect width="16" height="16" x="16" y="16" fill="#000"/><rect width="32" height="32" x="120" y="8" fill="#000"/><rect width="24" height="24" x="124" y="12" fill="#fff"/><rect width="16" height="16" x="128" y="16" fill="#000"/><rect width="32" height="32" x="8" y="120" fill="#000"/><rect width="24" height="24" x="12" y="124" fill="#fff"/><rect width="16" height="16" x="16" y="128" fill="#000"/><rect width="4" height="4" x="48" y="24" fill="#000"/><rect width="4" height="4" x="56" y="24" fill="#000"/><rect width="4" height="4" x="64" y="24" fill="#000"/><rect width="4" height="4" x="72" y="24" fill="#000"/><rect width="4" height="4" x="80" y="24" fill="#000"/><rect width="4" height="4" x="88" y="24" fill="#000"/><rect width="4" height="4" x="96" y="24" fill="#000"/><rect width="4" height="4" x="104" y="24" fill="#000"/><rect width="4" height="4" x="112" y="24" fill="#000"/><rect width="4" height="4" x="24" y="48" fill="#000"/><rect width="4" height="4" x="24" y="56" fill="#000"/><rect width="4" height="4" x="24" y="64" fill="#000"/><rect width="4" height="4" x="24" y="72" fill="#000"/><rect width="4" height="4" x="24" y="80" fill="#000"/><rect width="4" height="4" x="24" y="88" fill="#000"/><rect width="4" height="4" x="24" y="96" fill="#000"/><rect width="4" height="4" x="24" y="104" fill="#000"/><rect width="4" height="4" x="24" y="112" fill="#000"/><rect width="4" height="4" x="48" y="48" fill="#000"/><rect width="4" height="4" x="52" y="48" fill="#000"/><rect width="4" height="4" x="60" y="48" fill="#000"/><rect width="4" height="4" x="68" y="48" fill="#000"/><rect width="4" height="4" x="76" y="48" fill="#000"/><rect width="4" height="4" x="84" y="48" fill="#000"/><rect width="4" height="4" x="92" y="48" fill="#000"/><rect width="4" height="4" x="100" y="48" fill="#000"/><rect width="4" height="4" x="108" y="48" fill="#000"/><rect width="4" height="4" x="48" y="52" fill="#000"/><rect width="4" height="4" x="56" y="52" fill="#000"/><rect width="4" height="4" x="64" y="52" fill="#000"/><rect width="4" height="4" x="72" y="52" fill="#000"/><rect width="4" height="4" x="80" y="52" fill="#000"/><rect width="4" height="4" x="88" y="52" fill="#000"/><rect width="4" height="4" x="96" y="52" fill="#000"/><rect width="4" height="4" x="104" y="52" fill="#000"/><rect width="4" height="4" x="52" y="56" fill="#000"/><rect width="4" height="4" x="60" y="56" fill="#000"/><rect width="4" height="4" x="68" y="56" fill="#000"/><rect width="4" height="4" x="76" y="56" fill="#000"/><rect width="4" height="4" x="84" y="56" fill="#000"/><rect width="4" height="4" x="92" y="56" fill="#000"/><rect width="4" height="4" x="100" y="56" fill="#000"/><rect width="4" height="4" x="108" y="56" fill="#000"/><rect width="4" height="4" x="48" y="60" fill="#000"/><rect width="4" height="4" x="56" y="60" fill="#000"/><rect width="4" height="4" x="64" y="60" fill="#000"/><rect width="4" height="4" x="72" y="60" fill="#000"/><rect width="4" height="4" x="80" y="60" fill="#000"/><rect width="4" height="4" x="88" y="60" fill="#000"/><rect width="4" height="4" x="96" y="60" fill="#000"/><rect width="4" height="4" x="104" y="60" fill="#000"/><rect width="4" height="4" x="52" y="64" fill="#000"/><rect width="4" height="4" x="60" y="64" fill="#000"/><rect width="4" height="4" x="68" y="64" fill="#000"/><rect width="4" height="4" x="76" y="64" fill="#000"/><rect width="4" height="4" x="84" y="64" fill="#000"/><rect width="4" height="4" x="92" y="64" fill="#000"/><rect width="4" height="4" x="100" y="64" fill="#000"/><rect width="4" height="4" x="108" y="64" fill="#000"/><rect width="4" height="4" x="48" y="68" fill="#000"/><rect width="4" height="4" x="56" y="68" fill="#000"/><rect width="4" height="4" x="64" y="68" fill="#000"/><rect width="4" height="4" x="72" y="68" fill="#000"/><rect width="4" height="4" x="80" y="68" fill="#000"/><rect width="4" height="4" x="88" y="68" fill="#000"/><rect width="4" height="4" x="96" y="68" fill="#000"/><rect width="4" height="4" x="104" y="68" fill="#000"/><rect width="4" height="4" x="52" y="72" fill="#000"/><rect width="4" height="4" x="60" y="72" fill="#000"/><rect width="4" height="4" x="68" y="72" fill="#000"/><rect width="4" height="4" x="76" y="72" fill="#000"/><rect width="4" height="4" x="84" y="72" fill="#000"/><rect width="4" height="4" x="92" y="72" fill="#000"/><rect width="4" height="4" x="100" y="72" fill="#000"/><rect width="4" height="4" x="108" y="72" fill="#000"/><rect width="4" height="4" x="48" y="76" fill="#000"/><rect width="4" height="4" x="56" y="76" fill="#000"/><rect width="4" height="4" x="64" y="76" fill="#000"/><rect width="4" height="4" x="72" y="76" fill="#000"/><rect width="4" height="4" x="80" y="76" fill="#000"/><rect width="4" height="4" x="88" y="76" fill="#000"/><rect width="4" height="4" x="96" y="76" fill="#000"/><rect width="4" height="4" x="104" y="76" fill="#000"/><rect width="4" height="4" x="52" y="80" fill="#000"/><rect width="4" height="4" x="60" y="80" fill="#000"/><rect width="4" height="4" x="68" y="80" fill="#000"/><rect width="4" height="4" x="76" y="80" fill="#000"/><rect width="4" height="4" x="84" y="80" fill="#000"/><rect width="4" height="4" x="92" y="80" fill="#000"/><rect width="4" height="4" x="100" y="80" fill="#000"/><rect width="4" height="4" x="108" y="80" fill="#000"/><rect width="4" height="4" x="48" y="84" fill="#000"/><rect width="4" height="4" x="56" y="84" fill="#000"/><rect width="4" height="4" x="64" y="84" fill="#000"/><rect width="4" height="4" x="72" y="84" fill="#000"/><rect width="4" height="4" x="80" y="84" fill="#000"/><rect width="4" height="4" x="88" y="84" fill="#000"/><rect width="4" height="4" x="96" y="84" fill="#000"/><rect width="4" height="4" x="104" y="84" fill="#000"/><rect width="4" height="4" x="52" y="88" fill="#000"/><rect width="4" height="4" x="60" y="88" fill="#000"/><rect width="4" height="4" x="68" y="88" fill="#000"/><rect width="4" height="4" x="76" y="88" fill="#000"/><rect width="4" height="4" x="84" y="88" fill="#000"/><rect width="4" height="4" x="92" y="88" fill="#000"/><rect width="4" height="4" x="100" y="88" fill="#000"/><rect width="4" height="4" x="108" y="88" fill="#000"/><rect width="4" height="4" x="48" y="92" fill="#000"/><rect width="4" height="4" x="56" y="92" fill="#000"/><rect width="4" height="4" x="64" y="92" fill="#000"/><rect width="4" height="4" x="72" y="92" fill="#000"/><rect width="4" height="4" x="80" y="92" fill="#000"/><rect width="4" height="4" x="88" y="92" fill="#000"/><rect width="4" height="4" x="96" y="92" fill="#000"/><rect width="4" height="4" x="104" y="92" fill="#000"/><rect width="4" height="4" x="52" y="96" fill="#000"/><rect width="4" height="4" x="60" y="96" fill="#000"/><rect width="4" height="4" x="68" y="96" fill="#000"/><rect width="4" height="4" x="76" y="96" fill="#000"/><rect width="4" height="4" x="84" y="96" fill="#000"/><rect width="4" height="4" x="92" y="96" fill="#000"/><rect width="4" height="4" x="100" y="96" fill="#000"/><rect width="4" height="4" x="108" y="96" fill="#000"/><rect width="4" height="4" x="48" y="100" fill="#000"/><rect width="4" height="4" x="56" y="100" fill="#000"/><rect width="4" height="4" x="64" y="100" fill="#000"/><rect width="4" height="4" x="72" y="100" fill="#000"/><rect width="4" height="4" x="80" y="100" fill="#000"/><rect width="4" height="4" x="88" y="100" fill="#000"/><rect width="4" height="4" x="96" y="100" fill="#000"/><rect width="4" height="4" x="104" y="100" fill="#000"/><rect width="4" height="4" x="52" y="104" fill="#000"/><rect width="4" height="4" x="60" y="104" fill="#000"/><rect width="4" height="4" x="68" y="104" fill="#000"/><rect width="4" height="4" x="76" y="104" fill="#000"/><rect width="4" height="4" x="84" y="104" fill="#000"/><rect width="4" height="4" x="92" y="104" fill="#000"/><rect width="4" height="4" x="100" y="104" fill="#000"/><rect width="4" height="4" x="108" y="104" fill="#000"/><rect width="4" height="4" x="48" y="108" fill="#000"/><rect width="4" height="4" x="56" y="108" fill="#000"/><rect width="4" height="4" x="64" y="108" fill="#000"/><rect width="4" height="4" x="72" y="108" fill="#000"/><rect width="4" height="4" x="80" y="108" fill="#000"/><rect width="4" height="4" x="88" y="108" fill="#000"/><rect width="4" height="4" x="96" y="108" fill="#000"/><rect width="4" height="4" x="104" y="108" fill="#000"/><rect width="20" height="20" x="118" y="118" fill="#000"/><rect width="16" height="16" x="120" y="120" fill="#fff"/><rect width="8" height="8" x="124" y="124" fill="#000"/><rect width="4" height="4" x="126" y="126" fill="#fff"/><rect width="4" height="4" x="128" y="128" fill="#000"/></svg>